<svg width="80" height="80" viewBox="0 0 80 80" fill="none" xmlns="http://www.w3.org/2000/svg">
<path opacity="0.8" fill-rule="evenodd" clip-rule="evenodd" d="M33.3333 30C31.4924 30 30 31.4924 30 33.3333V66.6667C30 68.5076 31.4924 70 33.3333 70H66.6667C68.5076 70 70 68.5076 70 66.6667V33.3333C70 31.4924 68.5076 30 66.6667 30H33.3333ZM50 65C58.2843 65 65 58.2843 65 50C65 41.7157 58.2843 35 50 35C41.7157 35 35 41.7157 35 50C35 58.2843 41.7157 65 50 65Z" fill="#036FE2"/>
<path d="M48.9836 61.6667V52.5L51.2502 47.5H56.2502L48.9836 61.6667Z" fill="#024D9E"/>
<path d="M43.75 52.5007L51.25 38.334V47.5007L48.9833 52.5007H43.75Z" fill="#036FE2"/>
<path opacity="0.3" d="M13.3333 10C11.4924 10 10 11.4924 10 13.3333V46.6667C10 48.5076 11.4924 50 13.3333 50H20V23.3333C20 21.4924 21.4924 20 23.3333 20H50V13.3333C50 11.4924 48.5076 10 46.6667 10H13.3333Z" fill="#036FE2"/>
<path opacity="0.5" d="M23.3333 20C21.4924 20 20 21.4924 20 23.3333V56.6667C20 58.5076 21.4924 60 23.3333 60H30V33.3333C30 31.4924 31.4924 30 33.3333 30H60V23.3333C60 21.4924 58.5076 20 56.6667 20H23.3333Z" fill="#036FE2"/>
</svg>
